<?xml version="1.0" encoding="UTF-8" standalone="no"?><!DOCTYPE svg PUBLIC "-//W3C//DTD SVG 1.1//EN" "http://www.w3.org/Graphics/SVG/1.1/DTD/svg11.dtd"><svg width="100%" height="100%" viewBox="0 0 1692 481" version="1.1" xmlns="http://www.w3.org/2000/svg" xmlns:xlink="http://www.w3.org/1999/xlink" xml:space="preserve" xmlns:serif="http://www.serif.com/" style="fill-rule:evenodd;clip-rule:evenodd;stroke-linecap:round;stroke-linejoin:round;stroke-miterlimit:1.5;"><rect id="System" x="397.682" y="4.167" width="897.638" height="472.441" style="fill:#fff;stroke:#000;stroke-width:8.33px;"/><path id="State-1-arrow" serif:id="State 1 arrow" d="M1559.22,275.868l35.481,-35.481l-35.481,-35.481l0,70.962Z" style="fill:none;stroke:#000;stroke-width:8.33px;stroke-linejoin:miter;stroke-miterlimit:10;"/><path d="M1559.22,240.387l-265.713,0" style="fill:none;stroke:#000;stroke-width:8.33px;"/><g><g transform="matrix(100,0,0,100,1221.6,294.208)"></g><text x="1060.51px" y="294.208px" style="font-family:'ArialMT', 'Arial', sans-serif;font-size:100px;">S(t)</text><path id="Input-1-arrow" serif:id="Input 1 arrow" d="M958.67,303.81l35.481,-35.481l-35.481,-35.481l0,70.962Z" style="fill:none;stroke:#000;stroke-width:8.33px;stroke-linejoin:miter;stroke-miterlimit:10;"/><path d="M958.67,268.329l-265.713,-0" style="fill:none;stroke:#000;stroke-width:8.33px;"/><g transform="matrix(150,0,0,150,886.701,213.405)"></g><text x="782.301px" y="213.405px" style="font-family:'ReemKufi-Bold', 'Reem Kufi';font-weight:700;font-size:150px;">A</text><g transform="matrix(100,0,0,100,645.344,294.208)"></g><text x="484.26px" y="294.208px" style="font-family:'ArialMT', 'Arial', sans-serif;font-size:100px;">E(t)</text></g><path id="Input-1-arrow1" serif:id="Input 1 arrow" d="M356.308,275.868l35.481,-35.481l-35.481,-35.481l0,70.962Z" style="fill:none;stroke:#000;stroke-width:8.33px;stroke-linejoin:miter;stroke-miterlimit:10;"/><path d="M356.308,240.387l-265.713,0" style="fill:none;stroke:#000;stroke-width:8.33px;"/><g transform="matrix(100,0,0,100,243.769,145.899)"></g><text x="82.685px" y="145.899px" style="font-family:'ArialMT', 'Arial', sans-serif;font-size:100px;">E(t)</text><g transform="matrix(100,0,0,100,1594.21,145.899)"></g><text x="1433.12px" y="145.899px" style="font-family:'ArialMT', 'Arial', sans-serif;font-size:100px;">S(t)</text></svg>