<?xml version="1.0" encoding="UTF-8" standalone="no"?><!DOCTYPE svg PUBLIC "-//W3C//DTD SVG 1.1//EN" "http://www.w3.org/Graphics/SVG/1.1/DTD/svg11.dtd"><svg width="100%" height="100%" viewBox="0 0 3508 2481" version="1.1" xmlns="http://www.w3.org/2000/svg" xmlns:xlink="http://www.w3.org/1999/xlink" xml:space="preserve" xmlns:serif="http://www.serif.com/" style="fill-rule:evenodd;clip-rule:evenodd;stroke-linecap:round;stroke-linejoin:round;stroke-miterlimit:1.5;"><rect id="System" x="944.882" y="472.441" width="1181.1" height="755.906" style="fill:#fff;stroke:#000;stroke-width:8.33px;"/><g id="State-m" serif:id="State m"><path id="State-1-arrow" serif:id="State 1 arrow" d="M2398.82,1174.12l35.482,-35.481l-35.482,-35.481l0,70.962Z" style="fill:none;stroke:#000;stroke-width:8.33px;stroke-linejoin:miter;stroke-miterlimit:10;"/><path d="M2398.82,1138.64l-265.713,-0" style="fill:none;stroke:#000;stroke-width:8.33px;"/><g transform="matrix(1,0,0,1,2006.95,599.197)"><text x="453.606px" y="575.316px" style="font-family:'ArialMT', 'Arial', sans-serif;font-size:100px;">S</text><g transform="matrix(83.3333,0,0,83.3333,589.723,621.149)"></g><text x="520.305px" y="621.149px" style="font-family:'ArialMT', 'Arial', sans-serif;font-size:83.333px;">m</text></g></g><g id="State-2" serif:id="State 2"><path id="State-1-arrow1" serif:id="State 1 arrow" d="M2391.7,804.167l35.481,-35.481l-35.481,-35.481l0,70.962Z" style="fill:none;stroke:#000;stroke-width:8.33px;stroke-linejoin:miter;stroke-miterlimit:10;"/><path d="M2391.7,768.686l-265.713,0" style="fill:none;stroke:#000;stroke-width:8.33px;"/><g transform="matrix(1,0,0,1,1999.83,229.245)"><text x="453.606px" y="575.316px" style="font-family:'ArialMT', 'Arial', sans-serif;font-size:100px;">S</text><g transform="matrix(83.3333,0,0,83.3333,566.651,621.149)"></g><text x="520.305px" y="621.149px" style="font-family:'ArialMT', 'Arial', sans-serif;font-size:83.333px;">2</text></g></g><g id="State-1" serif:id="State 1"><path id="State-1-arrow2" serif:id="State 1 arrow" d="M2391.7,597.094l35.481,-35.481l-35.481,-35.481l0,70.962Z" style="fill:none;stroke:#000;stroke-width:8.33px;stroke-linejoin:miter;stroke-miterlimit:10;"/><path d="M2391.7,561.613l-265.713,0" style="fill:none;stroke:#000;stroke-width:8.33px;"/><g transform="matrix(1,0,0,1,1999.83,22.1721)"><text x="453.606px" y="575.316px" style="font-family:'ArialMT', 'Arial', sans-serif;font-size:100px;">S</text><g transform="matrix(83.3333,0,0,83.3333,566.651,621.149)"></g><text x="520.305px" y="621.149px" style="font-family:'ArialMT', 'Arial', sans-serif;font-size:83.333px;">1</text></g></g><g id="Input-n" serif:id="Input n"><path id="Input-1-arrow" serif:id="Input 1 arrow" d="M903.508,1169.34l35.481,-35.481l-35.481,-35.481l0,70.962Z" style="fill:none;stroke:#000;stroke-width:8.33px;stroke-linejoin:miter;stroke-miterlimit:10;"/><path d="M903.508,1133.86l-265.713,0" style="fill:none;stroke:#000;stroke-width:8.33px;"/><g transform="matrix(1,0,0,1,176.279,464.054)"><text x="453.606px" y="575.316px" style="font-family:'ArialMT', 'Arial', sans-serif;font-size:100px;">E</text><g transform="matrix(83.3333,0,0,83.3333,566.651,621.149)"></g><text x="520.305px" y="621.149px" style="font-family:'ArialMT', 'Arial', sans-serif;font-size:83.333px;">n</text></g></g><g id="Input-2" serif:id="Input 2"><path id="Input-1-arrow1" serif:id="Input 1 arrow" d="M903.508,815.724l35.481,-35.481l-35.481,-35.481l0,70.962Z" style="fill:none;stroke:#000;stroke-width:8.33px;stroke-linejoin:miter;stroke-miterlimit:10;"/><path d="M903.508,780.243l-265.713,0" style="fill:none;stroke:#000;stroke-width:8.33px;"/><g transform="matrix(1,0,0,1,176.279,110.44)"><text x="453.606px" y="575.316px" style="font-family:'ArialMT', 'Arial', sans-serif;font-size:100px;">E</text><g transform="matrix(83.3333,0,0,83.3333,566.651,621.149)"></g><text x="520.305px" y="621.149px" style="font-family:'ArialMT', 'Arial', sans-serif;font-size:83.333px;">2</text></g></g><g id="Input-1" serif:id="Input 1"><path id="Input-1-arrow2" serif:id="Input 1 arrow" d="M903.508,602.41l35.481,-35.481l-35.481,-35.481l0,70.962Z" style="fill:none;stroke:#000;stroke-width:8.33px;stroke-linejoin:miter;stroke-miterlimit:10;"/><path d="M903.508,566.929l-265.713,0" style="fill:none;stroke:#000;stroke-width:8.33px;"/><g transform="matrix(1,0,0,1,176.279,-102.875)"><text x="453.606px" y="575.316px" style="font-family:'ArialMT', 'Arial', sans-serif;font-size:100px;">E</text><g transform="matrix(83.3333,0,0,83.3333,566.651,621.149)"></g><text x="520.305px" y="621.149px" style="font-family:'ArialMT', 'Arial', sans-serif;font-size:83.333px;">1</text></g></g><text x="702.301px" y="912.652px" style="font-family:'ArialMT', 'Arial', sans-serif;font-size:150px;">. . .</text><text x="2214.11px" y="920.16px" style="font-family:'ArialMT', 'Arial', sans-serif;font-size:150px;">. . .</text><g transform="matrix(150,0,0,150,1786.95,889.212)"></g><text x="1286.85px" y="889.212px" style="font-family:'ArialMT', 'Arial', sans-serif;font-size:150px;">System</text></svg>