<?xml version="1.0" encoding="UTF-8" standalone="no"?><!DOCTYPE svg PUBLIC "-//W3C//DTD SVG 1.1//EN" "http://www.w3.org/Graphics/SVG/1.1/DTD/svg11.dtd"><svg width="100%" height="100%" viewBox="0 0 1427 1394" version="1.1" xmlns="http://www.w3.org/2000/svg" xmlns:xlink="http://www.w3.org/1999/xlink" xml:space="preserve" xmlns:serif="http://www.serif.com/" style="fill-rule:evenodd;clip-rule:evenodd;stroke-linecap:round;stroke-linejoin:round;stroke-miterlimit:1.5;"><path d="M101.701,1321.37l1322.84,0" style="fill:none;stroke:#000;stroke-width:4.08px;"/><path d="M101.701,1321.37l0,-1319.34" style="fill:none;stroke:#000;stroke-width:4.08px;"/><path d="M337.922,1322.37l-0,23.622" style="fill:none;stroke:#000;stroke-width:6.8px;"/><path d="M574.142,1322.37l0,23.622" style="fill:none;stroke:#000;stroke-width:6.8px;"/><path d="M810.363,1322.37l-0,23.622" style="fill:none;stroke:#000;stroke-width:6.8px;"/><path d="M1046.58,1322.37l-0,23.622" style="fill:none;stroke:#000;stroke-width:6.8px;"/><path d="M1282.8,1322.37l0,23.622" style="fill:none;stroke:#000;stroke-width:6.8px;"/><g transform="matrix(50,0,0,50,127.434,1386.28)"></g><text x="99.626px" y="1386.28px" style="font-family:'ArialMT', 'Arial', sans-serif;font-size:50px;">0</text><g transform="matrix(50,0,0,50,370.683,1393.28)"></g><text x="301.176px" y="1393.28px" style="font-family:'ArialMT', 'Arial', sans-serif;font-size:50px;">0.2</text><g transform="matrix(50,0,0,50,610.234,1393.28)"></g><text x="540.727px" y="1393.28px" style="font-family:'ArialMT', 'Arial', sans-serif;font-size:50px;">0.4</text><g transform="matrix(50,0,0,50,51.7388,1102.82)"></g><text x="23.931px" y="1102.82px" style="font-family:'ArialMT', 'Arial', sans-serif;font-size:50px;">2</text><g transform="matrix(50,0,0,50,844.784,1393.28)"></g><text x="775.278px" y="1393.28px" style="font-family:'ArialMT', 'Arial', sans-serif;font-size:50px;">0.6</text><g transform="matrix(50,0,0,50,1080.33,1393.28)"></g><text x="1010.83px" y="1393.28px" style="font-family:'ArialMT', 'Arial', sans-serif;font-size:50px;">0.8</text><g transform="matrix(50,0,0,50,51.5191,866.597)"></g><text x="23.711px" y="866.597px" style="font-family:'ArialMT', 'Arial', sans-serif;font-size:50px;">4</text><g transform="matrix(50,0,0,50,1314.89,1393.28)"></g><text x="1245.38px" y="1393.28px" style="font-family:'ArialMT', 'Arial', sans-serif;font-size:50px;">1.0</text><g transform="matrix(50,0,0,50,56.7519,630.386)"></g><text x="28.944px" y="630.386px" style="font-family:'ArialMT', 'Arial', sans-serif;font-size:50px;">6</text><g transform="matrix(50,0,0,50,53.1875,394.156)"></g><text x="25.38px" y="394.156px" style="font-family:'ArialMT', 'Arial', sans-serif;font-size:50px;">8</text><g transform="matrix(50,0,0,50,50.1709,157.935)"></g><text x="-5.444px" y="157.935px" style="font-family:'ArialMT', 'Arial', sans-serif;font-size:50px;">10</text><path d="M100.701,1085.15l-23.622,-0" style="fill:none;stroke:#000;stroke-width:6.8px;"/><path d="M100.701,848.933l-23.622,0" style="fill:none;stroke:#000;stroke-width:6.8px;"/><path d="M100.701,612.713l-23.622,-0" style="fill:none;stroke:#000;stroke-width:6.8px;"/><path d="M100.701,612.713l-23.622,-0" style="fill:none;stroke:#000;stroke-width:6.8px;"/><path d="M100.701,376.492l-23.622,0" style="fill:none;stroke:#000;stroke-width:6.8px;"/><path d="M100.701,140.272l-23.622,-0" style="fill:none;stroke:#000;stroke-width:6.8px;"/><path d="M100.701,1207.19l1182.1,0l0,110.685" style="fill:none;stroke:#000;stroke-width:10.31px;"/><path d="M101.701,1085.74l591.051,0l0,232.133" style="fill:none;stroke:#000;stroke-width:10.31px;"/><path d="M101.701,848.933l283.465,0l-0,468.941" style="fill:none;stroke:#000;stroke-width:10.31px;"/><path d="M100.701,140.272l119.11,-0l0,1177.6" style="fill:none;stroke:#000;stroke-width:10.31px;"/><g transform="matrix(1,0,0,1,-392.363,-862.142)"><text x="1576.06px" y="2017.13px" style="font-family:'ArialMT', 'Arial', sans-serif;font-size:100px;">h</text><text x="1631.67px" y="2033.79px" style="font-family:'ArialMT', 'Arial', sans-serif;font-size:50px;">1.0</text></g><g transform="matrix(1,0,0,1,-982.914,-975.718)"><text x="1576.06px" y="2017.13px" style="font-family:'ArialMT', 'Arial', sans-serif;font-size:100px;">h</text><g transform="matrix(50,0,0,50,1701.18,2033.79)"></g><text x="1631.67px" y="2033.79px" style="font-family:'ArialMT', 'Arial', sans-serif;font-size:50px;">0.5</text></g><g transform="matrix(1,0,0,1,-1279.18,-1211.94)"><text x="1576.06px" y="2017.13px" style="font-family:'ArialMT', 'Arial', sans-serif;font-size:100px;">h</text><g transform="matrix(50,0,0,50,1728.99,2033.79)"></g><text x="1631.67px" y="2033.79px" style="font-family:'ArialMT', 'Arial', sans-serif;font-size:50px;">0.25</text></g><g transform="matrix(1,0,0,1,-1431.73,-1914.25)"><text x="1576.06px" y="2017.13px" style="font-family:'ArialMT', 'Arial', sans-serif;font-size:100px;">h</text><g transform="matrix(50,0,0,50,1701.18,2033.79)"></g><text x="1631.67px" y="2033.79px" style="font-family:'ArialMT', 'Arial', sans-serif;font-size:50px;">0.1</text></g></svg>