<?xml version="1.0" encoding="UTF-8" standalone="no"?><!DOCTYPE svg PUBLIC "-//W3C//DTD SVG 1.1//EN" "http://www.w3.org/Graphics/SVG/1.1/DTD/svg11.dtd"><svg width="100%" height="100%" viewBox="0 0 716 703" version="1.1" xmlns="http://www.w3.org/2000/svg" xmlns:xlink="http://www.w3.org/1999/xlink" xml:space="preserve" xmlns:serif="http://www.serif.com/" style="fill-rule:evenodd;clip-rule:evenodd;stroke-linecap:round;stroke-linejoin:round;stroke-miterlimit:1.5;"><g id="Resistor"><rect x="97.822" y="156.174" width="283.465" height="94.488" style="fill:#fff;stroke:#000;stroke-width:6.67px;"/><path d="M381.286,203.418l94.488,0" style="fill:none;stroke:#000;stroke-width:6.67px;stroke-linecap:butt;"/><path d="M97.822,203.418l-94.489,0" style="fill:none;stroke:#000;stroke-width:6.67px;stroke-linecap:butt;"/></g><g id="Capacitor"><path d="M570.262,97.119l0,212.599" style="fill:none;stroke:#000;stroke-width:16.67px;stroke-linecap:butt;"/><path d="M617.507,97.119l-0,212.599" style="fill:none;stroke:#000;stroke-width:16.67px;stroke-linecap:butt;"/><path d="M617.507,203.418l94.488,0" style="fill:none;stroke:#000;stroke-width:6.67px;stroke-linecap:butt;"/><path d="M617.507,203.418l94.488,0" style="fill:none;stroke:#000;stroke-width:6.67px;stroke-linecap:butt;"/><path d="M475.774,203.418l94.488,0" style="fill:none;stroke:#000;stroke-width:6.67px;stroke-linecap:butt;"/></g><g id="External-Voltage" serif:id="External Voltage"><circle cx="381.286" cy="628.615" r="70.866" style="fill:none;stroke:#000;stroke-width:6.67px;stroke-linecap:butt;"/><path d="M381.286,557.749l0,141.732" style="fill:none;stroke:#000;stroke-width:6.67px;stroke-linecap:butt;"/><path d="M546.64,628.615l-94.488,0" style="fill:none;stroke:#000;stroke-width:6.67px;stroke-linecap:butt;"/><path d="M310.42,628.615l-94.488,0" style="fill:none;stroke:#000;stroke-width:6.67px;stroke-linecap:butt;"/></g><path d="M3.333,203.418l0,425.197l307.087,0" style="fill:none;stroke:#000;stroke-width:6.67px;"/><path d="M711.995,203.418l-0,425.197l-70.866,0" style="fill:none;stroke:#000;stroke-width:6.67px;"/><path d="M641.129,628.615l-94.489,0" style="fill:none;stroke:#000;stroke-width:6.67px;"/><g transform="matrix(83.3333,0,0,83.3333,245.939,91.512)"></g><text x="185.759px" y="91.512px" style="font-family:'ArialMT', 'Arial', sans-serif;font-size:83.333px;">R</text><g transform="matrix(83.3333,0,0,83.3333,620.802,60.6689)"></g><text x="560.622px" y="60.669px" style="font-family:'ArialMT', 'Arial', sans-serif;font-size:83.333px;">C</text><g transform="matrix(83.3333,0,0,83.3333,455.163,500.308)"></g><text x="320.927px" y="500.308px" style="font-family:'ArialMT', 'Arial', sans-serif;font-size:83.333px;">E(t)</text></svg>